<svg width="96" height="278" viewBox="0 0 96 278" fill="none" xmlns="http://www.w3.org/2000/svg">
<path fill-rule="evenodd" clip-rule="evenodd" d="M72.495 167.421C80.765 165.641 83.485 167.321 89.165 161.921C93.075 158.211 95.005 154.021 95.105 146.641C95.315 132.161 95.085 117.501 95.085 103.001C95.085 88.1609 97.445 73.9909 87.025 67.5609C78.775 62.4709 58.825 64.4709 47.875 64.4709C37.175 64.4709 15.295 62.2609 8.09499 67.8409C-2.36501 75.9409 0.304986 87.4509 0.304986 103.001C0.304986 117.501 0.104986 132.151 0.284986 146.631C0.484986 161.541 8.35499 166.551 22.805 167.071C24.125 188.211 22.965 213.181 22.965 234.741C22.965 271.831 18.815 277.281 47.875 277.281C59.475 277.281 69.085 277.371 71.895 266.951C73.145 262.301 72.145 178.451 72.495 167.421Z" fill="#D09E01"/>
<path fill-rule="evenodd" clip-rule="evenodd" d="M19.725 33.4109C22.205 46.9409 35.065 59.0709 52.285 56.3209C66.305 54.0909 78.455 40.4809 75.635 23.3009C69.595 -13.5491 12.855 -4.07913 19.725 33.4109Z" fill="#D09E01"/>
</svg>
