<svg width="360" height="640" viewBox="0 0 360 640" fill="none" xmlns="http://www.w3.org/2000/svg">
<rect width="360" height="640" fill="white"/>
<path fill-rule="evenodd" clip-rule="evenodd" d="M24.781 30.969C24.8508 31.0387 24.9063 31.1214 24.9441 31.2125C24.9819 31.3037 25.0013 31.4013 25.0013 31.5C25.0013 31.5986 24.9819 31.6963 24.9441 31.7874C24.9063 31.8786 24.8508 31.9613 24.781 32.031L20.8105 36L24.781 39.969C24.8507 40.0387 24.906 40.1215 24.9438 40.2126C24.9815 40.3037 25.0009 40.4014 25.0009 40.5C25.0009 40.5986 24.9815 40.6963 24.9438 40.7874C24.906 40.8785 24.8507 40.9613 24.781 41.031C24.7113 41.1007 24.6285 41.156 24.5374 41.1938C24.4463 41.2315 24.3486 41.2509 24.25 41.2509C24.1514 41.2509 24.0537 41.2315 23.9626 41.1938C23.8715 41.156 23.7887 41.1007 23.719 41.031L19.219 36.531C19.1492 36.4613 19.0937 36.3786 19.0559 36.2874C19.0181 36.1963 18.9987 36.0986 18.9987 36C18.9987 35.9013 19.0181 35.8037 19.0559 35.7125C19.0937 35.6214 19.1492 35.5387 19.219 35.469L23.719 30.969C23.7887 30.8992 23.8714 30.8437 23.9625 30.8059C24.0537 30.7681 24.1513 30.7487 24.25 30.7487C24.3486 30.7487 24.4463 30.7681 24.5374 30.8059C24.6286 30.8437 24.7113 30.8992 24.781 30.969V30.969Z" fill="#F2F2F2"/>
<path fill-rule="evenodd" clip-rule="evenodd" d="M19.75 36C19.75 35.8011 19.829 35.6103 19.9697 35.4697C20.1103 35.329 20.3011 35.25 20.5 35.25H36.25C36.4489 35.25 36.6397 35.329 36.7803 35.4697C36.921 35.6103 37 35.8011 37 36C37 36.1989 36.921 36.3897 36.7803 36.5303C36.6397 36.671 36.4489 36.75 36.25 36.75H20.5C20.3011 36.75 20.1103 36.671 19.9697 36.5303C19.829 36.3897 19.75 36.1989 19.75 36Z" fill="#F2F2F2"/>
<path d="M360 99C218.5 153.926 150 152.468 0 99V640H360V99Z" fill="#4CA4FF"/>
</svg>
