<svg width="93" height="169" viewBox="0 0 93 169" fill="none" xmlns="http://www.w3.org/2000/svg">
<path d="M46.2814 127.345C40.4561 127.345 34.9244 117.804 29.9313 116.186L23.8367 165.354C23.8367 166.158 25.2196 168.063 26.0518 168.063H64.8466C65.9602 168.063 67.0617 166.433 67.0617 165.079L60.9671 116.725C56.5369 118.08 51.5438 127.345 46.2814 127.345Z" fill="white"/>
<path d="M89.2371 94.2264H88.8699H90.2529C91.6358 94.2264 92.7372 93.1476 92.7372 91.7931C92.7372 90.4387 91.6358 89.3479 90.2529 89.3479H89.4207H89.5186H87.022H74.5514H73.1562H64.0144H62.6315H56.8184H34.3615H28.5484H27.7162H19.125H17.7299C17.7299 89.3479 17.4607 89.3479 17.1792 89.3479H4.99005H2.49348C1.11057 89.3479 0.559858 90.163 0.278381 91.2418C0.278381 91.5174 0.278381 91.5174 0.278381 91.7931C0.278381 92.3325 0.559858 92.6082 0.829096 93.1476C0.829096 93.9627 1.66129 94.5021 2.49348 94.5021H3.04419H5.81C8.03733 104.547 15.527 112.961 25.7703 117.852C26.6025 118.391 27.4347 118.655 28.2669 119.206C29.0991 119.482 29.6498 119.746 30.482 120.021C35.1937 121.652 40.456 122.73 45.9999 122.73C50.993 122.73 55.9739 121.927 60.4164 120.561C61.2486 120.285 61.7993 120.021 62.6315 119.746C63.7451 119.482 64.2959 118.931 65.128 118.655C75.9343 113.776 83.9747 105.098 86.1898 94.5021C86.1898 94.2264 89.2371 94.2264 89.2371 94.2264Z" fill="white"/>
<path d="M82.5918 15.6427C82.5918 9.70936 76.8154 4.89078 69.6929 4.89078H23.3227C16.2001 4.89078 10.4238 9.70936 10.4238 15.6427V76.6062C10.4238 82.5395 16.2001 87.3461 23.3227 87.3461H69.6929C76.8154 87.3461 82.5918 82.5395 82.5918 76.6062V15.6427Z" fill="white"/>
<path d="M51.042 4.57912C51.042 7.02437 49.0105 9.01414 46.5139 9.01414C44.0051 9.01414 41.9736 7.02437 41.9736 4.57912C41.9736 2.12188 44.0051 0.132111 46.5139 0.132111C49.0105 0.132111 51.042 2.12188 51.042 4.57912Z" fill="white"/>
</svg>
